PathFileType	4	(X/Y/Z)	C:/Users/beibeiliu/ov580/test_trc/User2\sequence.12_training_dense_right.trc
DataRate	CameraRate	NumFrames	NumMarkers	Units	OrigDataRate	OrigDataStartFrame	OrigNumFrames
120	120	12	19	mm	120	168	446
Frame#	Time	ThumbCMC			ThumbMCP			ThumbIP			ThumbTip			IndexMCP			IndexPIP			IndexTip			MiddleMCP			MiddlePIP			MiddleTip			RingMCP			RingPIP			RingTip			PinkyMCP			PinkyPIP			PinkyTip			BackHand1			BackHand2			BackHand3	
		X0	Y0	Z0	X1	Y1	Z1	X2	Y2	Z2	X3	Y3	Z3	X4	Y4	Z4	X5	Y5	Z5	X6	Y6	Z6	X7	Y7	Z7	X8	Y8	Z8	X9	Y9	Z9	X10	Y10	Z10	X11	Y11	Z11	X12	Y12	Z12	X13	Y13	Z13	X14	Y14	Z14	X15	Y15	Z15	X16	Y16	Z16	X17	Y17	Z17	X18	Y18	Z18	
167	1.39167	178.797	-16.0734	89.5981	182.755	-0.870739	57.2797	176.749	5.52178	18.1039	157.729	6.91847	2.39933	168.976	-55.4693	17.3086	164.684	-38.6323	-8.45607	151.984	-4.25057	-15.579	144.714	-74.9908	19.6549	140.888	-76.4765	-11.8415	135.908	-74.4118	-47.7431	113.404	-70.5112	26.4584	109.067	-76.0466	-3.6179	103.327	-76.2666	-30.5367	91.3961	-56.7302	41.5927	83.5355	-62.1204	17.5948	73.5268	-69.1407	-5.3007	119.548	-58.9642	81.7717	117.789	-52.2186	115.619	154.132	-56.5064	96.6263	
168	1.4	177.317	-11.7973	90.3208	177.192	1.51524	55.8805	170.67	8.39174	23.1392	152.688	6.4287	2.71637	168.023	-53.6988	19.8123	159.009	-35.3456	-10.0406	148.311	-6.25979	-15.5927	145.524	-75.0062	21.6998	143.099	-78.1714	-10.9088	136.451	-76.2243	-43.844	112.535	-74.0856	27.0427	107.109	-81.2597	-3.56086	106.227	-83.1724	-31.9064	88.5816	-63.2055	39.7407	82.9967	-68.8984	15.8941	72.4619	-78.28	-2.2597	120.037	-61.622	84.4389	121.47	-54.8511	113.052	153.981	-52.9304	98.0907	
169	1.40833	172.097	-9.72126	89.3549	174.233	7.79078	55.0788	164.728	14.6821	23.0743	145.862	12.9505	-2.2147	161.116	-50.024	13.2293	156.166	-32.8229	-9.30011	142.3	-3.92063	-14.6352	145.862	-73.3144	20.212	144.128	-76.5812	-15.7578	137.693	-75.6593	-46.7139	115.224	-74.7666	27.2339	109.096	-82.9808	-2.42561	106.028	-86.3062	-31.3797	88.5591	-66.9927	40.7346	79.9993	-72.0869	21.5857	72.7073	-83.9243	-4.50744	119.916	-64.726	82.788	123.705	-52.6667	116.737	154.706	-50.3229	96.7161	
170	1.41667	166.046	-7.08186	85.4474	167.297	14.9154	54.8758	155.529	21.0482	19.1727	135.637	17.335	4.43007	158.387	-44.6051	15.6838	148.159	-27.9501	-9.23069	128.314	5.25164	-11.5003	140.634	-69.3925	17.7822	140.92	-70.4107	-18.1789	132.487	-70.4608	-48.9863	116.095	-72.7909	26.5141	108.414	-79.7213	2.33483	102.018	-85.9758	-28.8396	89.1627	-66.5862	43.1552	77.904	-74.7142	18.7579	66.115	-85.4596	-1.56332	119.345	-62.2471	81.448	123.665	-55.2471	115.316	152.659	-47.8304	96.1004	
171	1.425	162.031	0.294534	84.744	155.282	18.3972	57.8587	140.337	24.2176	23.5435	122.193	21.521	5.59896	152.58	-36.7106	12.5113	137.037	-19.4428	-10.551	116.465	8.70054	-8.76802	139.085	-63.8903	13.5533	133.412	-65.8369	-18.4623	127.355	-65.5195	-49.4006	110.84	-71.4895	28.7489	106.845	-77.8562	-1.06951	98.4586	-85.203	-28.9884	87.0515	-69.5082	43.6966	76.521	-75.127	25.2588	65.8233	-87.9621	1.04756	121.517	-60.2171	83.1279	122.698	-56.0976	113.569	156.201	-43.6773	94.2835	
172	1.43333	151.649	4.55664	86.6805	141.845	24.636	59.3067	125.868	33.172	25.3102	106.165	24.5113	7.42147	147.18	-27.7213	14.2386	127.752	-9.25632	-9.14037	101.541	14.0356	-5.63867	139.798	-54.9234	14.3119	134.753	-55.52	-19.9244	122.978	-57.0912	-47.4276	113.012	-69.2038	26.0448	105.859	-76.0611	3.71181	102.307	-79.7184	-26.735	85.5883	-69.774	50.3473	74.4542	-79.7417	26.0759	68.3577	-88.3768	2.25743	121.805	-59.8448	82.1066	126.138	-55.4832	113.565	151.699	-40.9479	93.9586	
173	1.44167	142.152	9.45957	90.826	127.124	28.1642	63.8709	109.872	37.2035	30.8789	89.37	28.5272	11.1265	138.11	-18.1249	12.3286	115.723	-6.6486	-6.18353	86.0136	11.449	-0.722994	134.859	-50.0081	14.873	130.884	-48.8138	-17.4471	118.343	-48.771	-48.5871	113.629	-65.2408	28.5669	108.468	-70.7552	1.96626	101.414	-77.1652	-27.761	87.8298	-70.6863	50.8389	80.4642	-78.1289	27.5018	74.4511	-90.81	5.08501	122.618	-55.6839	84.6717	128.789	-55.7453	116.597	153.417	-31.2398	91.6532	
174	1.45	132.274	16.5442	94.2123	110.949	30.8435	64.7194	91.4103	36.816	39.7317	71.411	28.2335	17.1808	128.844	-11.5977	14.0161	104.594	-1.4997	-3.14771	71.2778	11.2058	3.74835	131.86	-43.0442	17.0639	125.458	-42.5222	-13.802	116.415	-40.6859	-46.9749	115.716	-62.1066	29.1157	109.486	-69.7069	-1.23041	103.223	-75.7483	-26.9521	93.7735	-71.1868	48.5254	85.6607	-79.847	26.5904	81.9027	-90.285	1.89507	126.775	-54.7741	83.5723	129.618	-53.8964	116.991	148.548	-24.6195	93.7855	
175	1.45833	119.063	19.3035	95.9777	93.8931	30.5131	69.3982	72.4332	33.2499	41.695	56.9591	18.6751	26.6379	121.175	-5.65799	18.3161	94.2042	-0.358122	-0.472362	60.2098	8.63314	6.96881	131.871	-31.0819	16.7679	124.326	-32.1396	-19.1979	112.371	-37.0816	-44.0857	120.113	-57.3624	25.9768	116.227	-62.4	-1.23186	110.498	-66.3245	-25.292	103.028	-72.8112	44.1992	98.3335	-78.5809	21.2304	97.5281	-90.7923	2.25031	129.206	-52.5535	85.3456	133.728	-46.8307	116.204	146.493	-18.524	92.5414	
176	1.46667	105.673	17.7736	100.729	78.8864	24.4396	74.6253	56.0311	23.2484	45.1871	46.3464	4.61631	28.5747	112.661	0.127576	19.1856	85.7614	3.56882	2.22687	54.6134	0.75737	7.68425	131.133	-21.8859	14.1634	124.001	-20.7784	-17.1189	113.91	-25.724	-45.7332	128.328	-46.0676	22.9699	125.527	-50.9951	0.607912	121.547	-58.4405	-30.6298	115.932	-67.9452	43.0341	112.794	-78.5878	21.3982	114.627	-85.8157	-0.907273	133.056	-45.6272	79.191	139.228	-43.5975	115.528	139.489	-9.1768	94.3269	
177	1.475	92.9564	14.6933	105.34	64.107	15.69	79.2748	48.1882	6.67473	47.9303	35.3872	-5.13538	26.9055	105.144	10.1753	21.9365	78.6306	-1.02068	4.44556	50.4913	-11.1952	8.69711	131.422	-11.838	19.5959	123.97	-7.13888	-16.2921	116.678	-11.8567	-48.0048	135.208	-41.2178	25.0682	135.256	-43.5832	-1.20896	132.968	-44.8059	-30.4967	127.353	-64.4068	42.3858	128.207	-66.9842	18.1833	131.637	-72.2423	-8.95788	139.053	-36.8545	83.8236	143.878	-39.2197	115.326	135.913	-1.20007	98.8634	
178	1.48333	87.0759	5.14997	107.091	58.3804	2.68405	77.1137	38.7825	-2.56575	48.8336	34.749	-17.1203	25.1963	100.795	11.4066	27.2372	78.0098	-1.34861	5.45669	49.5941	-21.388	7.68041	129.361	-2.76744	20.8252	124.691	0.230713	-11.2017	117.527	-2.98663	-47.1796	139.685	-28.3334	22.2753	142.365	-34.2342	-1.60551	141.365	-34.0273	-29.9604	136.676	-53.8816	40.2859	139.979	-58.6174	14.819	147.182	-63.6603	-7.37266	140.461	-30.9352	81.0876	147.215	-34.6775	112.188	130.151	-1.72673	98.5806	
